<svg width="294" height="44" viewBox="0 0 294 44" fill="none" xmlns="http://www.w3.org/2000/svg">
<path d="M0.5 0.5H147H293.5V43.5H0.5V0.5Z" fill="#FF9619" stroke="#FF9619"/>
<path d="M280.354 21.304C280.55 21.1087 280.55 20.7921 280.354 20.5969L277.172 17.4149C276.977 17.2196 276.66 17.2196 276.465 17.4149C276.27 17.6102 276.27 17.9268 276.465 18.122L279.294 20.9504L276.465 23.7789C276.27 23.9741 276.27 24.2907 276.465 24.486C276.66 24.6812 276.977 24.6812 277.172 24.486L280.354 21.304ZM264.223 21.4504L280.001 21.4504V20.4504L264.223 20.4504V21.4504Z" fill="white"/>
<path d="M60.9375 26V18.8613H66.4209V26H65.2588V19.8574H62.1094V26H60.9375ZM72.3535 26H68.3105V18.8613H72.3535V19.8477H69.4824V21.7861H72.1729V22.7676H69.4824V25.0088H72.3535V26ZM75.9717 18.8613C76.8929 18.8613 77.5651 19.0501 77.9883 19.4277C78.4115 19.8053 78.623 20.3343 78.623 21.0146C78.623 21.3239 78.5742 21.6185 78.4766 21.8984C78.3822 22.1751 78.2259 22.4209 78.0078 22.6357C77.7897 22.8473 77.5016 23.015 77.1436 23.1387C76.7887 23.2624 76.3509 23.3242 75.8301 23.3242H75.0684V26H73.8965V18.8613H75.9717ZM75.8936 19.833H75.0684V22.3477H75.708C76.0758 22.3477 76.3883 22.3053 76.6455 22.2207C76.9027 22.1328 77.098 21.9945 77.2314 21.8057C77.3649 21.6169 77.4316 21.3678 77.4316 21.0586C77.4316 20.6452 77.3063 20.3376 77.0557 20.1357C76.8083 19.9339 76.4209 19.833 75.8936 19.833ZM83.0908 19.7549C82.749 19.7549 82.443 19.8167 82.1729 19.9404C81.9059 20.0641 81.6797 20.2432 81.4941 20.4775C81.3086 20.7087 81.167 20.9902 81.0693 21.3223C80.9717 21.651 80.9229 22.0221 80.9229 22.4355C80.9229 22.9889 81.001 23.4658 81.1572 23.8662C81.3135 24.2633 81.5511 24.5693 81.8701 24.7842C82.1891 24.9958 82.5928 25.1016 83.0811 25.1016C83.3838 25.1016 83.6784 25.0723 83.9648 25.0137C84.2513 24.9551 84.5475 24.8753 84.8535 24.7744V25.7705C84.5638 25.8844 84.2708 25.9674 83.9746 26.0195C83.6784 26.0716 83.3366 26.0977 82.9492 26.0977C82.2201 26.0977 81.6146 25.9463 81.1328 25.6436C80.6543 25.3408 80.2962 24.9144 80.0586 24.3643C79.8242 23.8141 79.707 23.1696 79.707 22.4307C79.707 21.8903 79.7819 21.3955 79.9316 20.9463C80.0814 20.4971 80.2995 20.1097 80.5859 19.7842C80.8724 19.4554 81.2256 19.2031 81.6455 19.0273C82.0687 18.8483 82.5521 18.7588 83.0957 18.7588C83.4538 18.7588 83.8053 18.7995 84.1504 18.8809C84.4987 18.959 84.821 19.0713 85.1172 19.2178L84.707 20.1846C84.4596 20.0674 84.2008 19.9665 83.9307 19.8818C83.6605 19.7972 83.3805 19.7549 83.0908 19.7549ZM92.7246 22.4209C92.7246 22.971 92.6546 23.4723 92.5146 23.9248C92.3779 24.374 92.1712 24.7614 91.8945 25.0869C91.6178 25.4092 91.2712 25.6582 90.8545 25.834C90.4378 26.0098 89.9495 26.0977 89.3896 26.0977C88.82 26.0977 88.3252 26.0098 87.9053 25.834C87.4886 25.6582 87.1419 25.4076 86.8652 25.082C86.5918 24.7565 86.3867 24.3675 86.25 23.915C86.1133 23.4626 86.0449 22.9613 86.0449 22.4111C86.0449 21.6755 86.1654 21.0342 86.4062 20.4873C86.6504 19.9372 87.0199 19.5107 87.5146 19.208C88.0127 18.902 88.641 18.749 89.3994 18.749C90.1416 18.749 90.7585 18.9004 91.25 19.2031C91.7415 19.5059 92.1094 19.9323 92.3535 20.4824C92.6009 21.0293 92.7246 21.6755 92.7246 22.4209ZM87.2754 22.4209C87.2754 22.971 87.3503 23.4479 87.5 23.8516C87.6497 24.252 87.8792 24.5612 88.1885 24.7793C88.501 24.9941 88.9014 25.1016 89.3896 25.1016C89.8812 25.1016 90.2816 24.9941 90.5908 24.7793C90.9001 24.5612 91.1279 24.252 91.2744 23.8516C91.4209 23.4479 91.4941 22.971 91.4941 22.4209C91.4941 21.5843 91.3265 20.93 90.9912 20.458C90.6592 19.9827 90.1286 19.7451 89.3994 19.7451C88.9111 19.7451 88.5091 19.8525 88.1934 20.0674C87.8809 20.2822 87.6497 20.5898 87.5 20.9902C87.3503 21.3874 87.2754 21.8643 87.2754 22.4209ZM99.8877 26H98.7207V22.7773H95.4297V26H94.2578V18.8613H95.4297V21.7812H98.7207V18.8613H99.8877V26ZM106.201 26L105.503 24.0176H102.773L102.075 26H100.84L103.496 18.832H104.795L107.446 26H106.201ZM105.2 23.0117L104.521 21.0586C104.495 20.974 104.458 20.8551 104.409 20.7021C104.36 20.5459 104.312 20.388 104.263 20.2285C104.214 20.0658 104.173 19.929 104.141 19.8184C104.108 19.9518 104.067 20.1016 104.019 20.2676C103.973 20.4303 103.927 20.5833 103.882 20.7266C103.84 20.8698 103.807 20.9805 103.784 21.0586L103.101 23.0117H105.2ZM113.755 26H112.583V19.8574H110.552C110.509 20.1927 110.464 20.5508 110.415 20.9316C110.366 21.3092 110.316 21.6885 110.264 22.0693C110.212 22.4502 110.158 22.8115 110.103 23.1533C110.05 23.4951 109.997 23.7962 109.941 24.0566C109.857 24.4928 109.746 24.8639 109.609 25.1699C109.476 25.4727 109.295 25.7038 109.067 25.8633C108.84 26.0228 108.542 26.1025 108.174 26.1025C108.05 26.1025 107.93 26.0911 107.812 26.0684C107.695 26.0488 107.59 26.0228 107.495 25.9902V25.0234C107.573 25.0527 107.656 25.0788 107.744 25.1016C107.835 25.1211 107.931 25.1309 108.032 25.1309C108.201 25.1309 108.337 25.069 108.438 24.9453C108.542 24.8184 108.628 24.6393 108.696 24.4082C108.765 24.1738 108.83 23.8971 108.892 23.5781C108.927 23.3861 108.971 23.1322 109.023 22.8164C109.076 22.4974 109.132 22.1296 109.194 21.7129C109.256 21.2962 109.32 20.847 109.385 20.3652C109.453 19.8802 109.518 19.3789 109.58 18.8613H113.755V26ZM115.635 26V18.8613H116.807V21.7471H117.783C118.441 21.7471 118.975 21.8382 119.385 22.0205C119.795 22.1995 120.094 22.4469 120.283 22.7627C120.475 23.0785 120.571 23.4382 120.571 23.8418C120.571 24.5124 120.348 25.0397 119.902 25.4238C119.46 25.8079 118.768 26 117.827 26H115.635ZM116.807 25.0234H117.754C118.278 25.0234 118.68 24.9307 118.96 24.7451C119.24 24.5563 119.38 24.2552 119.38 23.8418C119.38 23.5521 119.312 23.3275 119.175 23.168C119.038 23.0052 118.84 22.8913 118.579 22.8262C118.319 22.7611 118.001 22.7285 117.627 22.7285H116.807V25.0234ZM127.632 26H126.465V22.7773H123.174V26H122.002V18.8613H123.174V21.7812H126.465V18.8613H127.632V26ZM133.945 26L133.247 24.0176H130.518L129.819 26H128.584L131.24 18.832H132.539L135.19 26H133.945ZM132.944 23.0117L132.266 21.0586C132.24 20.974 132.202 20.8551 132.153 20.7021C132.104 20.5459 132.056 20.388 132.007 20.2285C131.958 20.0658 131.917 19.929 131.885 19.8184C131.852 19.9518 131.812 20.1016 131.763 20.2676C131.717 20.4303 131.672 20.5833 131.626 20.7266C131.584 20.8698 131.551 20.9805 131.528 21.0586L130.845 23.0117H132.944ZM138.374 23.1387L136.611 26H135.283L137.3 22.8604C137.072 22.779 136.852 22.6618 136.641 22.5088C136.432 22.3558 136.261 22.1475 136.128 21.8838C135.998 21.6169 135.933 21.2832 135.933 20.8828C135.933 20.2253 136.16 19.724 136.616 19.3789C137.075 19.0339 137.738 18.8613 138.604 18.8613H140.747V26H139.575V23.1387H138.374ZM139.575 19.833H138.652C138.324 19.833 138.045 19.8721 137.817 19.9502C137.59 20.0251 137.417 20.1455 137.3 20.3115C137.183 20.4743 137.124 20.6891 137.124 20.9561C137.124 21.3402 137.251 21.638 137.505 21.8496C137.759 22.0612 138.146 22.167 138.667 22.167H139.575V19.833ZM150.693 26H149.331L146.396 22.377V26H145.225V18.8613H146.396V22.3184L149.277 18.8613H150.557L147.676 22.3086L150.693 26ZM157.979 22.4209C157.979 22.971 157.909 23.4723 157.769 23.9248C157.632 24.374 157.425 24.7614 157.148 25.0869C156.872 25.4092 156.525 25.6582 156.108 25.834C155.692 26.0098 155.203 26.0977 154.644 26.0977C154.074 26.0977 153.579 26.0098 153.159 25.834C152.743 25.6582 152.396 25.4076 152.119 25.082C151.846 24.7565 151.641 24.3675 151.504 23.915C151.367 23.4626 151.299 22.9613 151.299 22.4111C151.299 21.6755 151.419 21.0342 151.66 20.4873C151.904 19.9372 152.274 19.5107 152.769 19.208C153.267 18.902 153.895 18.749 154.653 18.749C155.396 18.749 156.012 18.9004 156.504 19.2031C156.995 19.5059 157.363 19.9323 157.607 20.4824C157.855 21.0293 157.979 21.6755 157.979 22.4209ZM152.529 22.4209C152.529 22.971 152.604 23.4479 152.754 23.8516C152.904 24.252 153.133 24.5612 153.442 24.7793C153.755 24.9941 154.155 25.1016 154.644 25.1016C155.135 25.1016 155.535 24.9941 155.845 24.7793C156.154 24.5612 156.382 24.252 156.528 23.8516C156.675 23.4479 156.748 22.971 156.748 22.4209C156.748 21.5843 156.58 20.93 156.245 20.458C155.913 19.9827 155.382 19.7451 154.653 19.7451C154.165 19.7451 153.763 19.8525 153.447 20.0674C153.135 20.2822 152.904 20.5898 152.754 20.9902C152.604 21.3874 152.529 21.8643 152.529 22.4209ZM165.142 26H163.975V22.7773H160.684V26H159.512V18.8613H160.684V21.7812H163.975V18.8613H165.142V26ZM170.073 19.7549C169.731 19.7549 169.425 19.8167 169.155 19.9404C168.888 20.0641 168.662 20.2432 168.477 20.4775C168.291 20.7087 168.149 20.9902 168.052 21.3223C167.954 21.651 167.905 22.0221 167.905 22.4355C167.905 22.9889 167.983 23.4658 168.14 23.8662C168.296 24.2633 168.534 24.5693 168.853 24.7842C169.172 24.9958 169.575 25.1016 170.063 25.1016C170.366 25.1016 170.661 25.0723 170.947 25.0137C171.234 24.9551 171.53 24.8753 171.836 24.7744V25.7705C171.546 25.8844 171.253 25.9674 170.957 26.0195C170.661 26.0716 170.319 26.0977 169.932 26.0977C169.202 26.0977 168.597 25.9463 168.115 25.6436C167.637 25.3408 167.279 24.9144 167.041 24.3643C166.807 23.8141 166.689 23.1696 166.689 22.4307C166.689 21.8903 166.764 21.3955 166.914 20.9463C167.064 20.4971 167.282 20.1097 167.568 19.7842C167.855 19.4554 168.208 19.2031 168.628 19.0273C169.051 18.8483 169.535 18.7588 170.078 18.7588C170.436 18.7588 170.788 18.7995 171.133 18.8809C171.481 18.959 171.803 19.0713 172.1 19.2178L171.689 20.1846C171.442 20.0674 171.183 19.9665 170.913 19.8818C170.643 19.7972 170.363 19.7549 170.073 19.7549ZM178.838 18.8613L176.567 23.9736C176.369 24.4294 176.16 24.8151 175.942 25.1309C175.728 25.4466 175.462 25.6875 175.146 25.8535C174.831 26.0163 174.422 26.0977 173.921 26.0977C173.739 26.0977 173.556 26.0846 173.374 26.0586C173.192 26.0326 173.024 25.9967 172.871 25.9512V24.8867C173.018 24.9486 173.175 24.9958 173.345 25.0283C173.517 25.0576 173.688 25.0723 173.857 25.0723C174.095 25.0723 174.292 25.0348 174.448 24.96C174.608 24.8851 174.741 24.7744 174.849 24.6279C174.959 24.4782 175.059 24.2959 175.146 24.0811L172.534 18.8613H173.789L175.474 22.4014C175.5 22.4567 175.532 22.5283 175.571 22.6162C175.61 22.7008 175.648 22.7887 175.684 22.8799C175.723 22.9678 175.755 23.0492 175.781 23.124H175.825C175.848 23.0589 175.876 22.9824 175.908 22.8945C175.944 22.8034 175.98 22.7106 176.016 22.6162C176.055 22.5218 176.089 22.4388 176.118 22.3672L177.612 18.8613H178.838ZM185.142 26H183.97V19.8574H181.938C181.896 20.1927 181.851 20.5508 181.802 20.9316C181.753 21.3092 181.702 21.6885 181.65 22.0693C181.598 22.4502 181.545 22.8115 181.489 23.1533C181.437 23.4951 181.383 23.7962 181.328 24.0566C181.243 24.4928 181.133 24.8639 180.996 25.1699C180.863 25.4727 180.682 25.7038 180.454 25.8633C180.226 26.0228 179.928 26.1025 179.561 26.1025C179.437 26.1025 179.316 26.0911 179.199 26.0684C179.082 26.0488 178.976 26.0228 178.882 25.9902V25.0234C178.96 25.0527 179.043 25.0788 179.131 25.1016C179.222 25.1211 179.318 25.1309 179.419 25.1309C179.588 25.1309 179.723 25.069 179.824 24.9453C179.928 24.8184 180.015 24.6393 180.083 24.4082C180.151 24.1738 180.216 23.8971 180.278 23.5781C180.314 23.3861 180.358 23.1322 180.41 22.8164C180.462 22.4974 180.519 22.1296 180.581 21.7129C180.643 21.2962 180.706 20.847 180.771 20.3652C180.84 19.8802 180.905 19.3789 180.967 18.8613H185.142V26ZM187.021 26V18.8613H188.193V21.7471H189.17C189.827 21.7471 190.361 21.8382 190.771 22.0205C191.182 22.1995 191.481 22.4469 191.67 22.7627C191.862 23.0785 191.958 23.4382 191.958 23.8418C191.958 24.5124 191.735 25.0397 191.289 25.4238C190.846 25.8079 190.155 26 189.214 26H187.021ZM188.193 25.0234H189.141C189.665 25.0234 190.067 24.9307 190.347 24.7451C190.627 24.5563 190.767 24.2552 190.767 23.8418C190.767 23.5521 190.698 23.3275 190.562 23.168C190.425 23.0052 190.226 22.8913 189.966 22.8262C189.705 22.7611 189.388 22.7285 189.014 22.7285H188.193V25.0234ZM195.864 26H194.688V19.8574H192.598V18.8613H197.949V19.8574H195.864V26ZM203.467 26L202.769 24.0176H200.039L199.341 26H198.105L200.762 18.832H202.061L204.712 26H203.467ZM202.466 23.0117L201.787 21.0586C201.761 20.974 201.724 20.8551 201.675 20.7021C201.626 20.5459 201.577 20.388 201.528 20.2285C201.479 20.0658 201.439 19.929 201.406 19.8184C201.374 19.9518 201.333 20.1016 201.284 20.2676C201.239 20.4303 201.193 20.5833 201.147 20.7266C201.105 20.8698 201.073 20.9805 201.05 21.0586L200.366 23.0117H202.466ZM212.1 25.0332V27.9727H210.972V26H205.654V18.8613H206.826V24.999H209.976V18.8613H211.138V25.0332H212.1ZM213.257 18.8613H214.326V22.6455C214.326 22.8083 214.325 22.9873 214.321 23.1826C214.318 23.3779 214.312 23.5684 214.302 23.7539C214.295 23.9395 214.289 24.1055 214.282 24.252C214.276 24.3952 214.269 24.4993 214.263 24.5645H214.297L217.93 18.8613H219.292V26H218.232V22.2451C218.232 22.0693 218.236 21.8789 218.242 21.6738C218.249 21.4688 218.257 21.2702 218.267 21.0781C218.276 20.8861 218.286 20.7168 218.296 20.5703C218.306 20.4238 218.312 20.3197 218.315 20.2578H218.271L214.629 26H213.257V18.8613ZM223.413 23.1387L221.65 26H220.322L222.339 22.8604C222.111 22.779 221.891 22.6618 221.68 22.5088C221.471 22.3558 221.3 22.1475 221.167 21.8838C221.037 21.6169 220.972 21.2832 220.972 20.8828C220.972 20.2253 221.2 19.724 221.655 19.3789C222.114 19.0339 222.777 18.8613 223.643 18.8613H225.786V26H224.614V23.1387H223.413ZM224.614 19.833H223.691C223.363 19.833 223.084 19.8721 222.856 19.9502C222.629 20.0251 222.456 20.1455 222.339 20.3115C222.222 20.4743 222.163 20.6891 222.163 20.9561C222.163 21.3402 222.29 21.638 222.544 21.8496C222.798 22.0612 223.185 22.167 223.706 22.167H224.614V19.833Z" fill="white"/>
</svg>
